<mxfile host="Electron" modified="2023-05-29T15:39:41.046Z" agent="Mozilla/5.0 (Windows NT 10.0; Win64; x64) AppleWebKit/537.36 (KHTML, like Gecko) draw.io/21.2.8 Chrome/112.0.5615.165 Electron/24.2.0 Safari/537.36" etag="AVVG3vfee6zb-heVybeH" version="21.2.8" type="device">
  <diagram name="Page-1" id="2cc2dc42-3aac-f2a9-1cec-7a8b7cbee084">
    <mxGraphModel dx="1434" dy="836" grid="1" gridSize="10" guides="1" tooltips="1" connect="1" arrows="1" fold="1" page="1" pageScale="1" pageWidth="1100" pageHeight="850" background="none" math="0" shadow="0">
      <root>
        <mxCell id="0" />
        <mxCell id="1" parent="0" />
        <mxCell id="7026571954dc6520-1" value="" style="strokeWidth=1;shadow=0;dashed=0;align=center;html=1;shape=mxgraph.mockup.containers.browserWindow;rSize=0;strokeColor=#666666;mainText=,;recursiveResize=0;rounded=0;labelBackgroundColor=none;fontFamily=Verdana;fontSize=12" parent="1" vertex="1">
          <mxGeometry x="30" y="20" width="1060" height="1340" as="geometry" />
        </mxCell>
        <mxCell id="7026571954dc6520-2" value="Page 1" style="strokeWidth=1;shadow=0;dashed=0;align=center;html=1;shape=mxgraph.mockup.containers.anchor;fontSize=17;fontColor=#666666;align=left;" parent="7026571954dc6520-1" vertex="1">
          <mxGeometry x="60" y="12" width="110" height="26" as="geometry" />
        </mxCell>
        <mxCell id="7026571954dc6520-3" value="https://www.default.com" style="strokeWidth=1;shadow=0;dashed=0;align=center;html=1;shape=mxgraph.mockup.containers.anchor;rSize=0;fontSize=17;fontColor=#666666;align=left;" parent="7026571954dc6520-1" vertex="1">
          <mxGeometry x="130" y="60" width="250" height="26" as="geometry" />
        </mxCell>
        <mxCell id="7026571954dc6520-4" value="Website Name" style="text;html=1;points=[];align=left;verticalAlign=top;spacingTop=-4;fontSize=30;fontFamily=Verdana" parent="7026571954dc6520-1" vertex="1">
          <mxGeometry x="30" y="140" width="340" height="50" as="geometry" />
        </mxCell>
        <mxCell id="7026571954dc6520-15" value="" style="verticalLabelPosition=bottom;shadow=0;dashed=0;align=center;html=1;verticalAlign=top;strokeWidth=1;shape=mxgraph.mockup.markup.line;strokeColor=#999999;rounded=0;labelBackgroundColor=none;fillColor=#ffffff;fontFamily=Verdana;fontSize=12;fontColor=#000000;" parent="7026571954dc6520-1" vertex="1">
          <mxGeometry y="200" width="1050" height="20" as="geometry" />
        </mxCell>
        <mxCell id="X35HXGrq21wr1HeMXBQU-3" value="Navigation Links" style="rounded=0;whiteSpace=wrap;html=1;" vertex="1" parent="7026571954dc6520-1">
          <mxGeometry x="280" y="130" width="240" height="60" as="geometry" />
        </mxCell>
        <mxCell id="X35HXGrq21wr1HeMXBQU-4" value="Login Status" style="rounded=0;whiteSpace=wrap;html=1;" vertex="1" parent="7026571954dc6520-1">
          <mxGeometry x="840" y="130" width="170" height="60" as="geometry" />
        </mxCell>
        <mxCell id="X35HXGrq21wr1HeMXBQU-30" value="" style="rounded=0;whiteSpace=wrap;html=1;" vertex="1" parent="7026571954dc6520-1">
          <mxGeometry y="1250" width="1060" height="90" as="geometry" />
        </mxCell>
        <mxCell id="X35HXGrq21wr1HeMXBQU-31" value="Tagline" style="ellipse;whiteSpace=wrap;html=1;" vertex="1" parent="7026571954dc6520-1">
          <mxGeometry x="10" y="1260" width="140" height="70" as="geometry" />
        </mxCell>
        <mxCell id="X35HXGrq21wr1HeMXBQU-32" value="Social Links" style="ellipse;whiteSpace=wrap;html=1;" vertex="1" parent="7026571954dc6520-1">
          <mxGeometry x="440" y="1260" width="140" height="70" as="geometry" />
        </mxCell>
        <mxCell id="X35HXGrq21wr1HeMXBQU-33" value="Copyright" style="ellipse;whiteSpace=wrap;html=1;" vertex="1" parent="7026571954dc6520-1">
          <mxGeometry x="855" y="1260" width="140" height="70" as="geometry" />
        </mxCell>
        <mxCell id="X35HXGrq21wr1HeMXBQU-39" value="" style="verticalLabelPosition=bottom;shadow=0;dashed=0;align=center;html=1;verticalAlign=top;strokeWidth=1;shape=mxgraph.mockup.graphics.simpleIcon;strokeColor=#999999;" vertex="1" parent="7026571954dc6520-1">
          <mxGeometry x="280" y="330" width="510" height="290" as="geometry" />
        </mxCell>
        <mxCell id="X35HXGrq21wr1HeMXBQU-46" value="Blog text content" style="rounded=0;whiteSpace=wrap;html=1;" vertex="1" parent="7026571954dc6520-1">
          <mxGeometry x="310" y="640" width="450" height="250" as="geometry" />
        </mxCell>
        <mxCell id="X35HXGrq21wr1HeMXBQU-47" value="Like and comments counts" style="rounded=0;whiteSpace=wrap;html=1;" vertex="1" parent="7026571954dc6520-1">
          <mxGeometry x="360" y="910" width="350" height="50" as="geometry" />
        </mxCell>
        <mxCell id="X35HXGrq21wr1HeMXBQU-49" value="" style="rounded=0;whiteSpace=wrap;html=1;" vertex="1" parent="7026571954dc6520-1">
          <mxGeometry x="310" y="990" width="460" height="240" as="geometry" />
        </mxCell>
        <mxCell id="X35HXGrq21wr1HeMXBQU-78" value="Blog Title" style="strokeWidth=1;shadow=0;dashed=0;align=center;html=1;shape=mxgraph.mockup.text.textBox;fontColor=#666666;align=left;fontSize=17;spacingLeft=4;spacingTop=-3;whiteSpace=wrap;strokeColor=#666666;mainText=" vertex="1" parent="7026571954dc6520-1">
          <mxGeometry x="460" y="280" width="150" height="30" as="geometry" />
        </mxCell>
        <mxCell id="X35HXGrq21wr1HeMXBQU-79" value="" style="ellipse;whiteSpace=wrap;html=1;aspect=fixed;" vertex="1" parent="7026571954dc6520-1">
          <mxGeometry x="370" y="915" width="40" height="40" as="geometry" />
        </mxCell>
        <mxCell id="X35HXGrq21wr1HeMXBQU-80" value="" style="ellipse;whiteSpace=wrap;html=1;aspect=fixed;" vertex="1" parent="7026571954dc6520-1">
          <mxGeometry x="660" y="915" width="40" height="40" as="geometry" />
        </mxCell>
        <mxCell id="X35HXGrq21wr1HeMXBQU-81" value="Submit comment here" style="rounded=0;whiteSpace=wrap;html=1;" vertex="1" parent="7026571954dc6520-1">
          <mxGeometry x="390" y="1140" width="300" height="60" as="geometry" />
        </mxCell>
        <mxCell id="X35HXGrq21wr1HeMXBQU-82" value="Comment 1" style="strokeWidth=1;shadow=0;dashed=0;align=center;html=1;shape=mxgraph.mockup.text.textBox;fontColor=#666666;align=left;fontSize=17;spacingLeft=4;spacingTop=-3;whiteSpace=wrap;strokeColor=#666666;mainText=" vertex="1" parent="7026571954dc6520-1">
          <mxGeometry x="360" y="1010" width="350" height="30" as="geometry" />
        </mxCell>
        <mxCell id="X35HXGrq21wr1HeMXBQU-83" value="Comment 2" style="strokeWidth=1;shadow=0;dashed=0;align=center;html=1;shape=mxgraph.mockup.text.textBox;fontColor=#666666;align=left;fontSize=17;spacingLeft=4;spacingTop=-3;whiteSpace=wrap;strokeColor=#666666;mainText=" vertex="1" parent="7026571954dc6520-1">
          <mxGeometry x="360" y="1050" width="350" height="30" as="geometry" />
        </mxCell>
        <mxCell id="X35HXGrq21wr1HeMXBQU-84" value="Comment 2" style="strokeWidth=1;shadow=0;dashed=0;align=center;html=1;shape=mxgraph.mockup.text.textBox;fontColor=#666666;align=left;fontSize=17;spacingLeft=4;spacingTop=-3;whiteSpace=wrap;strokeColor=#666666;mainText=" vertex="1" parent="7026571954dc6520-1">
          <mxGeometry x="360" y="1090" width="350" height="30" as="geometry" />
        </mxCell>
      </root>
    </mxGraphModel>
  </diagram>
</mxfile>
